<svg id="Layer_1" data-name="Layer 1" xmlns="http://www.w3.org/2000/svg" viewBox="0 0 256 256">
<defs>
<style>
  .cls-3{fill:#ffc000;}
  .cls-1{fill:#ff9c00;}
  .cls-2{fill:#ff8400;}
  .cls-4{fill:#ff5100;}
</style>
</defs>
<title>Loading</title>
<g>
  <path class="cls-3" id="outerRing" d="M128,246.86A118.91,118.91,0,0,1,13.13,158.64L4.29,161a128,128,0,0,0,247.42,0l-8.84-2.36A118.91,118.91,0,0,1,128,246.86ZM128,9.14A118.91,118.91,0,0,1,242.87,97.36L251.71,95A128,128,0,0,0,4.29,95l8.84,2.36A118.91,118.91,0,0,1,128,9.14Z"/>
  <animateTransform attributeName="transform" type="rotate" from="0 128 128" to="360 128 128" dur="4s" begin="0s" repeatCount="indefinite" fill="freeze"/>
</g>
<g>
  <path class="cls-1" id="middleRing" d="M128,27.43a100.6,100.6,0,0,1,97.19,74.65L234,99.72A109.75,109.75,0,0,0,22,99.72l8.84,2.36A100.6,100.6,0,0,1,128,27.43Zm0,201.14a100.6,100.6,0,0,1-97.19-74.65L22,156.28a109.75,109.75,0,0,0,212.06,0l-8.84-2.36A100.6,100.6,0,0,1,128,228.57Z"/>
  <animateTransform attributeName="transform" type="rotate" from="0 128 128" to="360 128 128" dur="6s" begin="0s" repeatCount="indefinite" fill="freeze"/>
</g>
<g>
  <path class="cls-2" id="innerRing" d="M128,44.71a82.31,82.31,0,0,1,79.52,61.08l8.84-2.36a91.46,91.46,0,0,0-176.72,0l8.84,2.36A82.31,82.31,0,0,1,128,44.71Zm0,164.58a82.31,82.31,0,0,1-79.52-61.08l-8.84,2.36a91.46,91.46,0,0,0,176.72,0l-8.84-2.36A82.31,82.31,0,0,1,128,209.29Z"/>
  <animateTransform attributeName="transform" type="rotate" from="0 128 128" to="360 128 128" dur="12s" begin="0s" repeatCount="indefinite" fill="freeze"/>
</g>
<path class="cls-4" d="M107.74,124.86c-3.4,0-5.78,2.52-5.78,6.14a6.91,6.91,0,0,0,.53,2.72h-6V121.1H93.14v15.65h9.37v-3a5.34,5.34,0,0,0,5.07,3.23c2.8,0,5.81-1.92,5.81-6.15C113.39,127.32,111.07,124.86,107.74,124.86Zm-.08,9.24c-1.35,0-2.34-1.33-2.34-3.16,0-1.48.63-3.2,2.38-3.2s2.3,2.07,2.3,3.16C110,132.75,109,134.1,107.66,134.1Z"/>
<path class="cls-4" d="M122.86,133.56v-3.8c0-3.11-1.68-4.9-4.61-4.9a7,7,0,0,0-3.75,1l-.49.32.92,2.68.8-.52a4.4,4.4,0,0,1,2.24-.64c.91,0,1.38.33,1.52,1.08-5.46.23-6.07,3.2-6.07,4.51a3.65,3.65,0,0,0,3.86,3.67,4.76,4.76,0,0,0,2.59-.75l.06.52h3.24l-.16-.88A14.09,14.09,0,0,1,122.86,133.56Zm-3.29-1a1.16,1.16,0,0,1-.06.34,1.78,1.78,0,0,1-1.75,1.2.9.9,0,0,1-1-1c0-.95.94-1.46,2.8-1.53Z"/>
<path class="cls-4" d="M134.62,133.38v-13h-3.35v5.11a4.67,4.67,0,0,0-2.36-.59,5,5,0,0,0-3.56,1.48,6.52,6.52,0,0,0-1.74,4.73c0,3.42,2.14,5.91,5.09,5.91a4.85,4.85,0,0,0,2.85-.89l0,.66h3.19l-.07-.82C134.63,135.15,134.62,134,134.62,133.38Zm-5.39.61c-1.66,0-2.25-1.55-2.25-3s.6-3.17,2.29-3.17a2,2,0,0,1,1.94,1.59,2.16,2.16,0,0,1,.06.57v1.77a2.71,2.71,0,0,1-.06.62A2,2,0,0,1,129.23,134Z"/>
<rect class="cls-4" x="136.19" y="125.09" width="3.35" height="11.66"/>
<path class="cls-4" d="M137.86,121.08A1.87,1.87,0,0,0,136,123a1.85,1.85,0,0,0,1.86,1.89,2,2,0,0,0,1.42-.57,1.81,1.81,0,0,0,.5-1.32A1.85,1.85,0,0,0,137.86,121.08Z"/>
<path class="cls-4" d="M146.91,124.86a4.61,4.61,0,0,0-2.76.87l0-.64H141l.06.8c.06.78.08,1.58.08,2.7v8.16h3.35v-6.86a2,2,0,0,1,.09-.64,1.87,1.87,0,0,1,1.76-1.36c.4,0,1.6,0,1.6,2.25v6.61h3.35v-6.82C151.25,126.19,148.91,124.86,146.91,124.86Z"/>
<path class="cls-4" d="M159.93,125.09l0,.5a4.47,4.47,0,0,0-2.56-.73c-2.59,0-5.33,2.15-5.33,6.14,0,3.25,2.18,5.71,5.07,5.71a4.63,4.63,0,0,0,2.49-.67,2.19,2.19,0,0,1-2.49,2.15,5,5,0,0,1-2.58-.68l-.81-.51-.94,2.86.47.31a7.24,7.24,0,0,0,3.8,1,6.15,6.15,0,0,0,4.2-1.41c1.17-1,1.7-2.65,1.7-5.2v-5.9c0-1.23,0-2,.08-2.75l0-.79Zm-.4,4.16a1.73,1.73,0,0,1,.07.6v1.82a2.42,2.42,0,0,1-.11.75,2,2,0,0,1-1.85,1.38c-1.66,0-2.25-1.5-2.25-2.9,0-1.88.89-3.09,2.27-3.09A1.94,1.94,0,0,1,159.53,129.25Z"/>
</svg>
